# xmcd CD database file
# Copyright (C) 1993-1998 Ti Kan
#
# Track frame offsets:
#  182
#  22597
#  46245
#  67617
#  85747
#  108730
#  134115
#  150435
#  185195
#  211447
#
# Disc length: 3010 seconds
#
# Revision: 1
# Processed by: cddbd v1.4b41PL1 Copyright (c) Steve Scherf et al.
# Submitted via: KiC 2.1 - (C) 1996-1998 Alwin Hoogerdijk
#
DISCID=800bc00a
DTITLE=Big Joe Burrell and The Unknown Blues Band - Every Time I Hear That Mellow
DTITLE=Saxaphone
DYEAR=1900
DGENRE=
TTITLE0=Chains Of Love
TTITLE1=Goin' Home (Where Women Got Meat On Their Bones)
TTITLE2=I Know My Baby
TTITLE3=The Voice Of The Porkchop
TTITLE4=Headin' Southbound
TTITLE5=Dead Presidents
TTITLE6=Coldcocked
TTITLE7=Goin' To New Orleans
TTITLE8=Viper Drag
TTITLE9=Every Time I Hear That Mellow Saxophone
EXTD=
EXTT0=
EXTT1=
EXTT2=
EXTT3=
EXTT4=
EXTT5=
EXTT6=
EXTT7=
EXTT8=
EXTT9=
PLAYORDER=
